<svg xmlns="http://www.w3.org/2000/svg" xmlns:xlink="http://www.w3.org/1999/xlink" width="1920" height="815" viewBox="0 0 1920 815">
  <defs>
    <style>
      .cls-1 {
        clip-path: url(#clip-BCG_BLOB);
      }

      .cls-2 {
        fill: #e85a25;
      }

      .cls-2, .cls-3, .cls-4, .cls-5, .cls-6, .cls-7, .cls-8 {
        fill-rule: evenodd;
      }

      .cls-3 {
        fill: #e88025;
      }

      .cls-4 {
        fill: #fdeb49;
      }

      .cls-5 {
        fill: #0a5505;
      }

      .cls-6 {
        fill: #287cdc;
      }

      .cls-7 {
        fill: #4d0c78;
      }

      .cls-8 {
        fill: #9b12c4;
      }

      .cls-9 {
        fill: #fff;
      }
    </style>
    <clipPath id="clip-BCG_BLOB">
      <rect width="1920" height="815"/>
    </clipPath>
  </defs>
  <g id="BCG_BLOB" data-name="BCG BLOB" class="cls-1">
    <rect class="cls-9" width="1920" height="815"/>
    <g id="Component_2_1" data-name="Component 2 – 1" transform="matrix(-0.087, -0.996, 0.996, -0.087, 925.282, 976.892)">
      <g id="Component_1_1" data-name="Component 1 – 1">
        <path id="Path_5" data-name="Path 5" class="cls-2" d="M.007,663.028c-1.289-150.617,163.256-199.141,242.6-309.675C328.859,233.192,348.969,1.946,475.929.011c126.657-1.932,143.034,40.6,235.554,152.168,99.7,120.233,305.572,184.527,328.14,358.143,22.612,173.913,43.788,429.019-62.765,539.531-92.913,96.367-383.788,212.076-500.929,183.406-106.445-26.05-195.6-197.872-274.973-292.976C115.273,837.62,1.3,813.849.007,663.028Z" transform="translate(1094.366 1357.416) rotate(-173)"/>
        <path id="Path_9" data-name="Path 9" class="cls-3" d="M.008,621.328C-1.413,480.184,189.6,453.425,277.1,349.843,372.208,237.238,384.81,1.824,524.809.01,664.474-1.8,748.964,178.092,850.986,282.645c109.942,112.672,286.044,124.09,310.929,286.786,24.934,162.975-100.982,430.669-218.478,534.23-102.456,90.306-271.1,124.605-400.268,97.739-117.377-24.411-173.136-225.392-260.662-314.515C188.023,790.68,1.433,762.664.008,621.328Z" transform="translate(1216.968 1428.445) rotate(-173)"/>
        <path id="Path_6" data-name="Path 6" class="cls-4" d="M.007,562.051C-1.29,434.372,173.034,410.166,252.88,316.466,339.679,214.6,351.18,1.65,478.945.009,606.4-1.629,679.2,132.26,772.305,226.838c100.334,101.922,256.937,61.715,279.647,208.89C1074.708,583.155,944.3,824.24,837.069,917.921c-93.5,81.69-210.736,164.342-328.62,140.039C401.33,1035.877,337.694,882.893,257.817,802.273,171.591,715.246,1.307,689.9.007,562.051Z" transform="translate(1087.561 1382.67) rotate(-166)"/>
        <path id="Path_4" data-name="Path 4" class="cls-5" d="M-1.06,481.023C7.771,376.091,143.278,348.928,211.7,268.557,286.085,181.185,311.291,5.6,409.366-1.07c97.842-6.654,89.456,171.849,153.557,245.741C632,324.3,784.2,317.97,790.282,438.042c6.1,120.277-92.971,226.746-182.386,308.242-77.969,71.065-190.48,127.346-278.984,112.271-80.422-13.7-95.779-127.774-150.812-190.739C118.694,599.846-9.9,586.1-1.06,481.023Z" transform="translate(914.954 1230.693) rotate(-162)"/>
        <path id="Path_8" data-name="Path 8" class="cls-6" d="M-44.136,619.658C-45.475,482.981,178.66,439.075,261.1,338.771,350.723,229.73,362.6,1.766,494.516.01c131.6-1.753,142.867,231.224,239,332.468,103.6,109.106,211.928,112.751,235.376,270.3,23.495,157.817-28.394,276.216-139.108,376.5-96.542,87.448-262.749,210.985-384.465,184.968-110.6-23.639-169.54-154.426-252.014-240.728C104.277,830.355-42.793,756.521-44.136,619.658Z" transform="matrix(-0.809, 0.588, -0.588, -0.809, 1474.745, 1025.825)"/>
      </g>
      <path id="Path_7" data-name="Path 7" class="cls-7" d="M.006,491.843C-1.151,380.113,154.365,358.931,225.6,276.935,303.031,187.8,313.291,1.444,427.271.008,540.979-1.425,623.652,59.149,706.713,141.913,796.222,231.1,900.6,363.053,920.86,491.843c20.3,129.011-108.252,226.707-203.911,308.686-83.414,71.486-184.513,135.586-289.678,114.319-55.808-11.285-89.409-57.9-122.03-108.987-23.015-36.043-45.6-74.454-75.24-103.8C153.078,625.9,1.166,603.725.006,491.843Z" transform="matrix(-0.545, -0.839, 0.839, -0.545, 643.041, 1490.109)"/>
      <path id="Path_10" data-name="Path 10" class="cls-8" d="M.006,491.843C-1.151,380.113,154.365,358.931,225.6,276.935,303.031,187.8,313.291,1.444,427.271.008c113.708-1.433,123.44,189.019,206.5,271.783C723.281,360.982,900.6,363.053,920.86,491.843c20.3,129.011-108.252,226.707-203.911,308.686-83.414,71.486-184.513,135.586-289.678,114.319-55.808-11.285-89.409-57.9-122.03-108.987-23.015-36.043-45.6-74.454-75.24-103.8C153.078,625.9,1.166,603.725.006,491.843Z" transform="matrix(-0.545, -0.839, 0.839, -0.545, 701.041, 1613.109)"/>
    </g>
  </g>
</svg>
