<svg xmlns="http://www.w3.org/2000/svg" xmlns:xlink="http://www.w3.org/1999/xlink" width="1920" height="815" viewBox="0 0 1920 815">
  <defs>
    <style>
      .cls-1 {
        clip-path: url(#clip-BCG_BLOB);
      }

      .cls-2 {
        fill: #e85a25;
      }

      .cls-2, .cls-3, .cls-4, .cls-5, .cls-6, .cls-7, .cls-8 {
        fill-rule: evenodd;
      }

      .cls-3 {
        fill: #e88025;
      }

      .cls-4 {
        fill: #fdeb49;
      }

      .cls-5 {
        fill: #0a5505;
      }

      .cls-6 {
        fill: #287cdc;
      }

      .cls-7 {
        fill: #4d0c78;
      }

      .cls-8 {
        fill: #9b12c4;
      }

      .cls-9 {
        fill: #fff;
      }
    </style>
    <clipPath id="clip-BCG_BLOB">
      <rect width="1920" height="815"/>
    </clipPath>
  </defs>
  <g id="BCG_BLOB" data-name="BCG BLOB" class="cls-1">
    <rect class="cls-9" width="1920" height="815"/>
    <g id="Component_2_1" data-name="Component 2 – 1" transform="matrix(-0.342, -0.94, 0.94, -0.342, 1467.063, 625.764)">
      <g id="Component_1_1" data-name="Component 1 – 1">
        <path id="Path_5" data-name="Path 5" class="cls-2" d="M.007,663.028c-1.289-150.617,163.256-199.141,242.6-309.675C328.859,233.192,348.969,1.946,475.929.011c126.657-1.932,143.034,40.6,235.554,152.168,99.7,120.233,305.572,184.527,328.14,358.143,22.612,173.913,43.788,429.019-62.765,539.531-92.913,96.367-383.788,212.076-500.929,183.406-106.445-26.05-195.6-197.872-274.973-292.976C115.273,837.62,1.3,813.849.007,663.028Z" transform="translate(1178.937 1377.321) rotate(-173)"/>
        <path id="Path_9" data-name="Path 9" class="cls-3" d="M.008,621.328C-1.413,480.184,189.6,453.425,277.1,349.843,372.208,237.238,384.81,1.824,524.809.01,664.474-1.8,748.964,178.092,850.986,282.645c109.942,112.672,286.044,124.09,310.929,286.786,24.934,162.975-100.982,430.669-218.478,534.23-102.456,90.306-271.1,124.605-400.268,97.739-117.377-24.411-173.136-225.392-260.662-314.515C188.023,790.68,1.433,762.664.008,621.328Z" transform="translate(1156.418 1482.097) rotate(-173)"/>
        <path id="Path_6" data-name="Path 6" class="cls-4" d="M.007,562.051C-1.29,434.372,173.034,410.166,252.88,316.466,339.679,214.6,351.18,1.65,478.945.009,606.4-1.629,679.2,132.26,772.305,226.838c100.334,101.922,321.257,63.319,343.968,210.493,22.755,147.427-171.976,386.909-279.2,480.59-93.5,81.69-210.736,164.342-328.62,140.039C401.33,1035.877,337.694,882.893,257.817,802.273,171.591,715.246,1.307,689.9.007,562.051Z" transform="translate(1123.987 1301.215) rotate(-166)"/>
        <path id="Path_4" data-name="Path 4" class="cls-5" d="M-1.074,587.21C7.47,459.174,138.578,426.03,204.781,327.963,276.749,221.353,301.136,7.107,396.028-1.03,490.694-9.149,482.58,208.656,544.6,298.818c66.834,97.163,245.254-31.477,251.141,115.032,5.9,146.76-121.116,397.586-207.628,497.025-75.438,86.712-184.3,155.385-269.927,136.991-77.812-16.714-92.67-155.907-145.916-232.736C114.792,732.195-9.63,715.42-1.074,587.21Z" transform="translate(836.131 1268.355) rotate(-162)"/>
        <path id="Path_8" data-name="Path 8" class="cls-6" d="M-44.136,619.658C-45.475,482.981,178.66,439.075,261.1,338.771,350.723,229.73,362.6,1.766,494.516.01c131.6-1.753,142.867,231.224,239,332.468,103.6,109.106,211.928,112.751,235.376,270.3,23.495,157.817-28.394,276.216-139.108,376.5-96.542,87.448-262.749,210.985-384.465,184.968-110.6-23.639-169.54-154.426-252.014-240.728C104.277,830.355-42.793,756.521-44.136,619.658Z" transform="translate(1199.024 1342.656) rotate(-171)"/>
      </g>
      <path id="Path_7" data-name="Path 7" class="cls-7" d="M.006,491.843C-1.151,380.113,154.365,358.931,225.6,276.935,303.031,187.8,313.291,1.444,427.271.008c113.708-1.433,269.937,114.553,353,197.317C869.778,286.516,900.6,363.053,920.86,491.843c20.3,129.011-108.252,226.707-203.911,308.686-83.414,71.486-184.513,135.586-289.678,114.319-55.808-11.285-89.409-57.9-122.03-108.987-23.015-36.043-45.6-74.454-75.24-103.8C153.078,625.9,1.166,603.725.006,491.843Z" transform="matrix(-0.545, -0.839, 0.839, -0.545, 650.275, 1283.207)"/>
      <path id="Path_10" data-name="Path 10" class="cls-8" d="M.006,491.843C-1.151,380.113,154.365,358.931,225.6,276.935,303.031,187.8,313.291,1.444,427.271.008c113.708-1.433,123.44,189.019,206.5,271.783C723.281,360.982,900.6,363.053,920.86,491.843c20.3,129.011-108.252,226.707-203.911,308.686-83.414,71.486-184.513,135.586-289.678,114.319-55.808-11.285-89.409-57.9-122.03-108.987-23.015-36.043-45.6-74.454-75.24-103.8C153.078,625.9,1.166,603.725.006,491.843Z" transform="matrix(-0.545, -0.839, 0.839, -0.545, 607.241, 1368.116)"/>
    </g>
    <g id="Component_2_2" data-name="Component 2 – 2" transform="translate(-2.013 558.402) rotate(-120)">
      <g id="Component_1_1-2" data-name="Component 1 – 1" transform="translate(0.668 3.44)">
        <path id="Path_5-2" data-name="Path 5" class="cls-2" d="M.008,663.08C-1.281,512.462,163.263,463.939,242.606,353.4,328.859,233.243,348.969,2,475.929.063c126.657-1.932,143.034,40.6,235.554,152.168,99.7,120.233,305.572,184.527,328.14,358.143,22.612,173.913,43.788,429.019-62.765,539.531-92.913,96.367-383.788,212.076-500.929,183.406-106.445-26.05-195.6-197.872-274.973-292.976C115.274,837.672,1.3,813.9.008,663.08Z" transform="translate(1078.186 1321.001) rotate(-173)"/>
        <path id="Path_9-2" data-name="Path 9" class="cls-3" d="M.008,621.332C-1.413,480.187,189.6,453.428,277.1,349.846,372.208,237.242,384.81,1.827,524.809.014,664.474-1.8,748.964,178.1,850.986,282.649c109.942,112.672,286.044,124.09,310.929,286.786,24.934,162.975-100.982,430.669-218.478,534.23-102.456,90.306-271.1,124.605-400.268,97.739-117.377-24.411-173.136-225.392-260.662-314.515C188.023,790.683,1.433,762.668.008,621.332Z" transform="translate(1162.494 1336.907) rotate(-173)"/>
        <path id="Path_6-2" data-name="Path 6" class="cls-4" d="M.007,562.057C-1.29,434.378,173.034,410.172,252.88,316.472,339.679,214.611,351.18,1.655,478.945.015,606.4-1.623,679.2,132.265,772.305,226.844c100.334,101.922,256.937,61.715,279.647,208.89C1074.708,583.161,944.3,824.245,837.069,917.926c-93.5,81.69-210.736,164.342-328.62,140.039C401.33,1035.882,337.694,882.9,257.817,802.279,171.591,715.251,1.307,689.909.007,562.057Z" transform="translate(1023.24 1285.849) rotate(-166)"/>
        <path id="Path_4-2" data-name="Path 4" class="cls-5" d="M-1.6,573.3c9.762-124.29,140.778-157.717,207.724-253.494C278.9,215.689,305.294,7.614,399.965-1.2c94.446-8.8,84.241,202.574,145.189,289.437,65.679,93.607,212.546,84.683,216.991,226.753C766.6,657.3,669.787,784.258,582.582,881.564c-76.042,84.852-185.224,152.529-270.405,135.517-77.4-15.457-90.862-150.344-143.194-224.358C112.492,712.827-11.374,697.763-1.6,573.3Z" transform="translate(740.184 1217.148) rotate(-162)"/>
        <path id="Path_8-2" data-name="Path 8" class="cls-6" d="M.006,619.658C-1.333,482.981,222.8,439.075,305.243,338.771,394.865,229.73,406.74,1.766,538.658.01c131.6-1.753,142.867,231.224,239,332.468,103.6,109.106,211.928,112.751,235.376,270.3,23.5,157.817-28.394,276.216-139.108,376.5-96.542,87.448-262.749,210.985-384.465,184.968-110.6-23.639-169.54-154.426-252.014-240.728C148.418,830.355,1.349,756.521.006,619.658Z" transform="translate(1141.877 1334.189) rotate(-171)"/>
      </g>
      <path id="Path_7-2" data-name="Path 7" class="cls-7" d="M.006,491.848C-1.151,380.118,154.365,358.936,225.6,276.941,303.031,187.8,313.291,1.449,427.271.013c113.708-1.433,269.937,114.553,353,197.317C869.778,286.521,900.6,363.058,920.86,491.848c20.3,129.011-108.252,226.707-203.911,308.686-83.414,71.486-184.513,135.586-289.678,114.319-55.808-11.285-89.409-57.9-122.03-108.987-23.015-36.043-45.6-74.454-75.24-103.8C153.078,625.907,1.166,603.73.006,491.848Z" transform="matrix(-0.545, -0.839, 0.839, -0.545, 545.731, 1274.611)"/>
      <path id="Path_10-2" data-name="Path 10" class="cls-8" d="M.006,491.843C-1.151,380.113,154.365,358.931,225.6,276.935,303.031,187.8,313.291,1.444,427.271.008c113.708-1.433,123.44,189.019,206.5,271.783C723.281,360.982,900.6,363.053,920.86,491.843c20.3,129.011-108.252,226.707-203.911,308.686-83.414,71.486-184.513,135.586-289.678,114.319-55.808-11.285-89.409-57.9-122.03-108.987-23.015-36.043-45.6-74.454-75.24-103.8C153.078,625.9,1.166,603.725.006,491.843Z" transform="matrix(-0.545, -0.839, 0.839, -0.545, 502.701, 1359.517)"/>
    </g>
  </g>
</svg>
